HIERARCHY
ROOT Hips
{
 OFFSET 0.000000 0.000000 0.000000
 CHANNELS 6 Xposition Yposition Zposition Yrotation Xrotation Zrotation
 JOINT Chest
 {
  OFFSET 0.000000 10.354800 0.006500
  CHANNELS 3 Yrotation Xrotation Zrotation
  JOINT Chest2
  {
   OFFSET 0.000000 10.435800 -0.013200
   CHANNELS 3 Yrotation Xrotation Zrotation
   JOINT Chest3
   {
    OFFSET 0.000000 10.393700 0.000000
    CHANNELS 3 Yrotation Xrotation Zrotation
    JOINT Chest4
    {
     OFFSET 0.000000 10.383100 0.000000
     CHANNELS 3 Yrotation Xrotation Zrotation
     JOINT Neck
     {
      OFFSET 0.000000 15.694000 0.000000
      CHANNELS 3 Yrotation Xrotation Zrotation
      JOINT Head
      {
       OFFSET 0.000000 9.711000 -0.028000
       CHANNELS 3 Yrotation Xrotation Zrotation
       End Site
       {
        OFFSET 0.000000 18.578700 -0.014800
       }
      }
     }
     JOINT RightCollar
     {
      OFFSET -3.157200 10.367500 0.000000
      CHANNELS 3 Yrotation Xrotation Zrotation
      JOINT RightShoulder
      {
       OFFSET -14.482500 0.000000 0.000000
       CHANNELS 3 Yrotation Xrotation Zrotation
       JOINT RightElbow
       {
        OFFSET 0.000000 -31.707800 0.000000
        CHANNELS 3 Yrotation Xrotation Zrotation
        JOINT RightWrist
        {
         OFFSET 0.000000 -25.659300 0.000000
         CHANNELS 3 Yrotation Xrotation Zrotation
         End Site
         {
          OFFSET 0.000000 -18.994300 0.000000
         }
        }
       }
      }
     }
     JOINT LeftCollar
     {
      OFFSET 3.157200 10.367500 0.000000
      CHANNELS 3 Yrotation Xrotation Zrotation
      JOINT LeftShoulder
      {
       OFFSET 14.482500 0.000000 0.000000
       CHANNELS 3 Yrotation Xrotation Zrotation
       JOINT LeftElbow
       {
        OFFSET 0.000000 -31.707800 0.000000
        CHANNELS 3 Yrotation Xrotation Zrotation
        JOINT LeftWrist
        {
         OFFSET 0.000000 -25.659300 0.000000
         CHANNELS 3 Yrotation Xrotation Zrotation
         End Site
         {
          OFFSET 0.000000 -18.994300 0.000000
         }
        }
       }
      }
     }
    }
   }
  }
 }
 JOINT RightHip
 {
  OFFSET -8.365600 -0.032100 -0.003200
  CHANNELS 3 Yrotation Xrotation Zrotation
  JOINT RightKnee
  {
   OFFSET 0.000000 -43.980000 0.003100
   CHANNELS 3 Yrotation Xrotation Zrotation
   JOINT RightAnkle
   {
    OFFSET 0.000000 -42.882800 0.005200
    CHANNELS 3 Yrotation Xrotation Zrotation
    JOINT RightToe
    {
     OFFSET 0.000000 -4.915500 10.826300
     CHANNELS 3 Yrotation Xrotation Zrotation
     End Site
     {
      OFFSET 0.000000 -1.517500 6.175900
     }
    }
   }
  }
 }
 JOINT LeftHip
 {
  OFFSET 8.365600 -0.032100 -0.003200
  CHANNELS 3 Yrotation Xrotation Zrotation
  JOINT LeftKnee
  {
   OFFSET 0.000000 -43.980000 0.003100
   CHANNELS 3 Yrotation Xrotation Zrotation
   JOINT LeftAnkle
   {
    OFFSET 0.000000 -42.882800 0.005200
    CHANNELS 3 Yrotation Xrotation Zrotation
    JOINT LeftToe
    {
     OFFSET 0.000000 -4.915500 10.826300
     CHANNELS 3 Yrotation Xrotation Zrotation
     End Site
     {
      OFFSET 0.000000 -1.517500 6.175900
     }
    }
   }
  }
 }
}
MOTION
Frames: 16
Frame Time: 0.008333
4.074669 126.553362 44.215995 173.279032 -20.725910 -2.716215 -0.437212 12.916620 3.161237 -0.061667 1.040186 0.257540 -0.101822 1.767593 0.437044 -0.427373 11.696671 2.858594 -2.908354 19.207165 -1.935691 -2.654526 -5.378177 -1.409852 6.143757 6.659595 -4.083695 -3.155732 -28.897268 -14.871349 -102.307354 -44.598788 124.198845 -29.887624 -19.798490 -30.682270 -4.463262 10.040384 -1.460468 24.892018 -16.564448 -5.390978 111.947552 -47.579042 -137.416999 28.688279 -7.664792 25.318472 10.157362 -61.203657 -6.777678 -91.841115 79.159670 -85.502791 5.152948 5.820756 -16.519659 -0.000457 -0.004275 -0.000207 -16.930321 -62.282728 -0.811423 101.851640 84.821798 96.069500 -7.424588 -24.051896 -0.589682 -0.002751 -0.000796 -0.001249
4.074589 126.552827 44.215557 173.285697 -20.719040 -2.725891 -0.438874 12.916661 3.161190 -0.063832 1.047250 0.249866 -0.099624 1.761134 0.445039 -0.427760 11.691532 2.865110 -2.911235 19.212372 -1.944111 -2.656977 -5.378427 -1.415990 6.147991 6.671849 -4.101027 -3.143546 -28.875789 -14.886119 -102.314224 -44.576720 124.224436 -29.890391 -19.790285 -30.665743 -4.459819 10.055787 -1.466699 24.886399 -16.575373 -5.397101 111.938007 -47.562308 -137.398626 28.672673 -7.647060 25.334235 10.145740 -61.211156 -6.767032 -91.843888 79.157534 -85.504760 5.141148 5.820941 -16.519007 -0.000537 -0.004970 -0.000244 -16.947070 -62.287370 -0.798830 101.843108 84.820723 96.053900 -7.376061 -24.039420 -0.598099 -0.000528 0.001626 -0.000240
4.074898 126.552368 44.214962 173.281702 -20.714023 -2.733575 -0.433459 12.926560 3.156554 -0.062771 1.035994 0.260282 -0.102986 1.764553 0.440381 -0.425027 11.693640 2.865523 -2.912582 19.211188 -1.947733 -2.653771 -5.382421 -1.418960 6.153546 6.667797 -4.102511 -3.140206 -28.872309 -14.887845 -102.282894 -44.573016 124.228729 -29.892921 -19.744819 -30.638924 -4.454577 10.058291 -1.467141 24.882508 -16.581146 -5.400176 111.923046 -47.548077 -137.392174 28.655318 -7.644385 25.349455 10.136955 -61.217828 -6.751032 -91.843799 79.157035 -85.504340 5.135800 5.821021 -16.520848 -0.000581 -0.005162 -0.000264 -16.956589 -62.293774 -0.779505 101.899025 84.817155 96.110496 -7.372171 -24.025245 -0.607035 0.000954 0.002279 0.000433
4.074795 126.551785 44.214570 173.282828 -20.707225 -2.740344 -0.428966 12.929563 3.158764 -0.064861 1.030313 0.262726 -0.101297 1.768987 0.437237 -0.422557 11.694907 2.865403 -2.914934 19.207944 -1.949851 -2.653851 -5.387411 -1.415184 6.153541 6.663751 -4.104229 -3.136333 -28.869385 -14.889964 -102.252998 -44.568101 124.234970 -29.894099 -19.720993 -30.620470 -4.451357 10.061621 -1.464422 24.897866 -16.559922 -5.427130 111.911769 -47.533559 -137.427662 28.637193 -7.642778 25.365837 10.140338 -61.223879 -6.751121 -91.837967 79.156869 -85.493606 5.134799 5.821186 -16.520702 -0.000054 -0.005165 -0.000025 -16.972546 -62.301361 -0.755952 101.972422 84.816043 96.182216 -7.380043 -24.015419 -0.616950 0.002549 0.003738 0.001157
4.074763 126.551391 44.213665 173.288693 -20.703074 -2.748007 -0.427382 12.934928 3.160870 -0.067393 1.032815 0.263328 -0.101435 1.770483 0.437514 -0.423426 11.699148 2.865366 -2.914426 19.200648 -1.953957 -2.652854 -5.396377 -1.412514 6.163296 6.658121 -4.114537 -3.137368 -28.860934 -14.892511 -102.238049 -44.556648 124.252618 -29.889956 -19.707167 -30.608859 -4.441088 10.073975 -1.466922 24.897502 -16.581704 -5.436742 111.879236 -47.514079 -137.415725 28.666741 -7.657649 25.404661 10.148434 -61.225529 -6.754426 -91.849266 79.151594 -85.496821 5.119109 5.816710 -16.518010 0.001105 -0.004059 0.000502 -16.986254 -62.304531 -0.742502 102.041957 84.818819 96.250770 -7.371147 -24.022582 -0.617903 0.003695 0.004695 0.001678
4.074966 126.550929 44.213022 173.298276 -20.697100 -2.757461 -0.430235 12.935772 3.165499 -0.065569 1.036015 0.259467 -0.101306 1.771608 0.437658 -0.421602 11.702635 2.865426 -2.918788 19.200331 -1.961135 -2.658318 -5.407433 -1.413163 6.165596 6.654225 -4.121064 -3.139734 -28.854898 -14.889891 -102.230525 -44.548549 124.269022 -29.890658 -19.682428 -30.594856 -4.440583 10.071928 -1.459080 24.900660 -16.585035 -5.444734 111.861856 -47.505470 -137.413974 28.692796 -7.669050 25.418184 10.142183 -61.229363 -6.749462 -91.853194 79.152945 -85.501981 5.119388 5.811278 -16.517344 0.001198 -0.003272 0.000544 -17.007881 -62.309576 -0.726514 102.115479 84.823381 96.323254 -7.364157 -24.030091 -0.616828 0.003355 0.006684 0.001524
4.074377 126.550465 44.212161 173.302645 -20.691733 -2.759573 -0.432808 12.932677 3.165953 -0.058344 1.048144 0.255305 -0.101078 1.773972 0.437219 -0.422907 11.703309 2.866390 -2.922526 19.185800 -1.957426 -2.663910 -5.406122 -1.420738 6.163427 6.651948 -4.126734 -3.147613 -28.837669 -14.892749 -102.255697 -44.528288 124.307785 -29.894593 -19.665122 -30.586157 -4.440186 10.067029 -1.453103 24.907001 -16.556135 -5.457486 111.868086 -47.488813 -137.455724 28.697340 -7.675287 25.415637 10.149788 -61.232894 -6.755075 -91.835839 79.155865 -85.491787 5.111896 5.812680 -16.502665 -0.001713 -0.001869 -0.000778 -17.008939 -62.318827 -0.725853 102.191430 84.826923 96.402158 -7.374162 -24.042393 -0.617220 0.003053 0.004393 0.001386
4.074441 126.549506 44.212887 173.313895 -20.677103 -2.767843 -0.438704 12.925649 3.167867 -0.061106 1.042672 0.257943 -0.100470 1.779721 0.434788 -0.426216 11.703055 2.864510 -2.919278 19.181332 -1.956178 -2.666342 -5.404071 -1.421876 6.172235 6.663355 -4.149586 -3.171343 -28.848096 -14.863331 -102.222179 -44.524226 124.313416 -29.886517 -19.673108 -30.583725 -4.434655 10.066597 -1.448596 24.900850 -16.545188 -5.465341 111.840493 -47.479169 -137.447634 28.683809 -7.685466 25.395287 10.139632 -61.246741 -6.754271 -91.834132 79.156117 -85.489877 5.108777 5.812450 -16.500548 -0.001193 -0.001531 -0.000542 -17.011209 -62.335302 -0.730288 102.284321 84.839614 96.500530 -7.330882 -24.059724 -0.617816 0.003869 0.003402 0.001757
4.073612 126.548942 44.212359 173.320129 -20.669380 -2.767925 -0.441499 12.929819 3.162588 -0.062399 1.039548 0.259465 -0.101494 1.776057 0.434791 -0.428563 11.705068 2.861362 -2.920848 19.182346 -1.955941 -2.662178 -5.409869 -1.419119 6.176873 6.659219 -4.152262 -3.178973 -28.845462 -14.858201 -102.116971 -44.512454 124.297441 -29.858379 -19.694577 -30.577041 -4.429441 10.066376 -1.444313 24.890583 -16.535435 -5.473456 111.786376 -47.464994 -137.409882 28.651489 -7.695733 25.356757 10.157125 -61.251536 -6.772344 -91.820896 79.162527 -85.475492 5.097546 5.813464 -16.494108 -0.000812 -0.000276 -0.000369 -17.011795 -62.343091 -0.732511 102.312007 84.870620 96.522332 -7.310319 -24.074340 -0.612026 0.000462 0.003361 0.000210
4.072665 126.548578 44.211330 173.321747 -20.664922 -2.764970 -0.443045 12.928376 3.157694 -0.061808 1.042522 0.257591 -0.102505 1.771508 0.437320 -0.428228 11.711280 2.857518 -2.923597 19.182167 -1.953606 -2.662270 -5.407366 -1.415788 6.180260 6.654643 -4.155885 -3.162495 -28.830791 -14.871136 -102.090207 -44.491927 124.302389 -29.900285 -19.643930 -30.534895 -4.419191 10.069743 -1.435930 24.872401 -16.529315 -5.484176 111.793026 -47.463574 -137.417944 28.652590 -7.693358 25.333271 10.193290 -61.259782 -6.802473 -91.862064 79.158243 -85.517456 5.109911 5.815667 -16.479489 -0.002754 -0.002285 -0.001250 -17.005023 -62.347382 -0.739960 102.301956 84.875823 96.514142 -7.326114 -24.092790 -0.616439 -0.000812 0.002545 -0.000369
4.072596 126.548341 44.210240 173.323867 -20.661819 -2.766780 -0.438306 12.939601 3.154577 -0.061929 1.042699 0.257565 -0.104201 1.764911 0.439572 -0.430299 11.707202 2.859557 -2.923569 19.188042 -1.954901 -2.662528 -5.406359 -1.412749 6.189185 6.658703 -4.168557 -3.162742 -28.826649 -14.865301 -102.082047 -44.481765 124.305688 -29.925202 -19.623115 -30.520016 -4.414497 10.078346 -1.435210 24.859903 -16.527658 -5.490395 111.810657 -47.462670 -137.435481 28.662777 -7.688298 25.316828 10.205152 -61.265580 -6.810424 -91.890243 79.154414 -85.543136 5.097645 5.814285 -16.473068 -0.003589 -0.003244 -0.001630 -17.005542 -62.352457 -0.740299 102.354791 84.879048 96.567013 -7.321693 -24.108645 -0.618945 -0.001346 -0.000308 -0.000611
4.072868 126.547797 44.210113 173.329883 -20.653558 -2.772427 -0.442924 12.934942 3.156865 -0.061655 1.045759 0.255226 -0.102425 1.765413 0.441548 -0.431932 11.703872 2.860659 -2.922567 19.204156 -1.958527 -2.663383 -5.402219 -1.407860 6.199821 6.674544 -4.191647 -3.167557 -28.829886 -14.851043 -102.033931 -44.454537 124.304801 -29.915467 -19.634099 -30.520809 -4.412492 10.084708 -1.434470 24.853938 -16.526408 -5.495791 111.805931 -47.467313 -137.437039 28.668188 -7.693580 25.303320 10.205679 -61.275594 -6.810862 -91.908372 79.149806 -85.561430 5.104233 5.812231 -16.471276 -0.002998 -0.004015 -0.001361 -17.019606 -62.359028 -0.730486 102.332547 84.883748 96.541305 -7.293763 -24.125155 -0.622981 -0.000246 -0.002346 -0.000112
4.073308 126.547353 44.209822 173.323695 -20.647361 -2.774651 -0.436855 12.931800 3.159234 -0.060097 1.048836 0.253118 -0.103102 1.765787 0.441199 -0.426387 11.704280 2.859707 -2.923840 19.201901 -1.952879 -2.663691 -5.403163 -1.406336 6.203580 6.679763 -4.198770 -3.157854 -28.828372 -14.854705 -101.993514 -44.424252 124.305629 -29.908621 -19.638921 -30.521758 -4.412275 10.087532 -1.430354 24.849329 -16.532956 -5.497007 111.782488 -47.469265 -137.427774 28.661944 -7.700902 25.305303 10.212106 -61.282311 -6.805267 -91.912719 79.149907 -85.570240 5.134977 5.804184 -16.472873 -0.000323 -0.004299 -0.000146 -17.022101 -62.364491 -0.718119 102.300663 84.877611 96.507891 -7.308020 -24.123444 -0.619589 -0.001678 -0.003109 -0.000762
4.074496 126.546583 44.210697 173.325376 -20.634975 -2.784571 -0.433060 12.932383 3.162696 -0.062211 1.039140 0.258271 -0.100449 1.775193 0.436367 -0.425226 11.697222 2.862596 -2.924655 19.200454 -1.948735 -2.664992 -5.396391 -1.404756 6.209860 6.689603 -4.207546 -3.152800 -28.833762 -14.856140 -101.968045 -44.398008 124.309149 -29.916490 -19.625005 -30.519097 -4.416055 10.090533 -1.425767 24.851692 -16.527788 -5.498990 111.770627 -47.470374 -137.434607 28.657189 -7.712676 25.308504 10.201554 -61.295023 -6.789146 -91.910909 79.145755 -85.569859 5.142023 5.800466 -16.471481 0.000290 -0.003282 0.000132 -17.030548 -62.372530 -0.702741 102.230102 84.862323 96.437448 -7.301359 -24.123664 -0.618428 -0.001112 -0.003274 -0.000505
4.074554 126.546411 44.209712 173.324183 -20.633154 -2.786084 -0.429471 12.936884 3.163641 -0.063110 1.036436 0.258345 -0.100161 1.774897 0.437169 -0.423274 11.699603 2.862308 -2.927454 19.203512 -1.949462 -2.667037 -5.382886 -1.405086 6.216071 6.700623 -4.218443 -3.140884 -28.839124 -14.860583 -101.950118 -44.375868 124.311895 -29.928756 -19.609391 -30.512495 -4.426301 10.092403 -1.420349 24.861284 -16.524561 -5.506870 111.774990 -47.468310 -137.443457 28.659181 -7.706282 25.314725 10.201983 -61.296930 -6.782525 -91.912443 79.136674 -85.574504 5.154341 5.798582 -16.469575 0.001638 -0.003542 0.000744 -16.972521 -62.368374 -0.735684 102.149882 84.869563 96.382757 -7.366927 -24.115615 -0.607006 -0.001833 -0.001939 -0.000832
4.074172 126.546052 44.209171 173.326507 -20.628628 -2.786616 -0.430028 12.938749 3.161492 -0.062266 1.036279 0.260764 -0.101288 1.772001 0.437093 -0.422031 11.704215 2.861607 -2.925362 19.218055 -1.950456 -2.671230 -5.401723 -1.400241 6.218723 6.700898 -4.223410 -3.116572 -28.836157 -14.874835 -101.931521 -44.357503 124.309196 -29.941757 -19.598831 -30.500056 -4.431586 10.087817 -1.414140 24.860049 -16.502491 -5.500484 111.776729 -47.451119 -137.457625 28.660144 -7.676293 25.320430 10.203285 -61.301516 -6.780485 -91.917444 79.133672 -85.585405 5.154556 5.795415 -16.463764 0.000958 -0.002997 0.000435 -16.948757 -62.371367 -0.750288 102.100830 84.865735 96.342297 -7.383339 -24.101218 -0.603939 -0.000644 -0.002246 -0.000292
